<svg width="611" height="558" viewBox="0 0 611 558" fill="none" xmlns="http://www.w3.org/2000/svg">
<g opacity="0.23">
<path opacity="0.0285714" d="M253.272 541.938C392.382 541.938 505.152 505.216 505.152 459.918C505.152 414.62 392.382 377.898 253.272 377.898C114.162 377.898 1.39099 414.62 1.39099 459.918C1.39099 505.216 114.162 541.938 253.272 541.938Z" fill="#011026"/>
<path opacity="0.0571429" d="M253.272 540.778C391.613 540.778 503.761 504.576 503.761 459.918C503.761 415.26 391.613 379.058 253.272 379.058C114.93 379.058 2.78198 415.26 2.78198 459.918C2.78198 504.576 114.93 540.778 253.272 540.778Z" fill="#011026"/>
<path opacity="0.0857143" d="M253.272 539.645C390.845 539.645 502.37 503.95 502.37 459.918C502.37 415.886 390.845 380.191 253.272 380.191C115.698 380.191 4.1731 415.886 4.1731 459.918C4.1731 503.95 115.698 539.645 253.272 539.645Z" fill="#011026"/>
<path opacity="0.1143" d="M253.272 538.486C390.063 538.486 500.954 503.31 500.954 459.918C500.954 416.526 390.063 381.35 253.272 381.35C116.481 381.35 5.58984 416.526 5.58984 459.918C5.58984 503.31 116.481 538.486 253.272 538.486Z" fill="#011026"/>
<path opacity="0.1429" d="M253.272 537.327C389.294 537.327 499.563 502.67 499.563 459.918C499.563 417.166 389.294 382.509 253.272 382.509C117.249 382.509 6.98096 417.166 6.98096 459.918C6.98096 502.67 117.249 537.327 253.272 537.327Z" fill="#011026"/>
<path opacity="0.1714" d="M253.272 536.167C388.526 536.167 498.172 502.029 498.172 459.918C498.172 417.807 388.526 383.669 253.272 383.669C118.017 383.669 8.37207 417.807 8.37207 459.918C8.37207 502.029 118.017 536.167 253.272 536.167Z" fill="#011026"/>
<path opacity="0.2" d="M253.272 535.034C387.758 535.034 496.781 501.403 496.781 459.918C496.781 418.433 387.758 384.802 253.272 384.802C118.786 384.802 9.76306 418.433 9.76306 459.918C9.76306 501.403 118.786 535.034 253.272 535.034Z" fill="#011026"/>
<path opacity="0.2286" d="M253.272 533.875C386.99 533.875 495.389 500.763 495.389 459.918C495.389 419.073 386.99 385.961 253.272 385.961C119.554 385.961 11.1541 419.073 11.1541 459.918C11.1541 500.763 119.554 533.875 253.272 533.875Z" fill="#011026"/>
<path opacity="0.2571" d="M253.272 532.716C386.221 532.716 493.998 500.123 493.998 459.918C493.998 419.713 386.221 387.12 253.272 387.12C120.322 387.12 12.545 419.713 12.545 459.918C12.545 500.123 120.322 532.716 253.272 532.716Z" fill="#011026"/>
<path opacity="0.2857" d="M253.272 531.582C385.439 531.582 492.582 499.497 492.582 459.918C492.582 420.339 385.439 388.254 253.272 388.254C121.105 388.254 13.9619 420.339 13.9619 459.918C13.9619 499.497 121.105 531.582 253.272 531.582Z" fill="#011026"/>
<path opacity="0.3143" d="M253.272 530.423C384.671 530.423 491.19 498.857 491.19 459.918C491.19 420.979 384.671 389.413 253.272 389.413C121.873 389.413 15.3529 420.979 15.3529 459.918C15.3529 498.857 121.873 530.423 253.272 530.423Z" fill="#011026"/>
<path opacity="0.3429" d="M253.272 529.264C383.902 529.264 489.799 498.217 489.799 459.918C489.799 421.619 383.902 390.572 253.272 390.572C122.641 390.572 16.7439 421.619 16.7439 459.918C16.7439 498.217 122.641 529.264 253.272 529.264Z" fill="#011026"/>
<path opacity="0.3714" d="M253.272 528.13C383.134 528.13 488.408 497.591 488.408 459.918C488.408 422.245 383.134 391.706 253.272 391.706C123.409 391.706 18.135 422.245 18.135 459.918C18.135 497.591 123.409 528.13 253.272 528.13Z" fill="#011026"/>
<path opacity="0.4" d="M253.272 526.971C382.366 526.971 487.017 496.95 487.017 459.918C487.017 422.886 382.366 392.865 253.272 392.865C124.178 392.865 19.5261 422.886 19.5261 459.918C19.5261 496.95 124.178 526.971 253.272 526.971Z" fill="#011026"/>
<path opacity="0.4286" d="M253.272 525.812C381.598 525.812 485.626 496.31 485.626 459.918C485.626 423.526 381.598 394.024 253.272 394.024C124.946 394.024 20.9171 423.526 20.9171 459.918C20.9171 496.31 124.946 525.812 253.272 525.812Z" fill="#011026"/>
<path opacity="0.4571" d="M253.272 524.653C380.829 524.653 484.235 495.67 484.235 459.918C484.235 424.166 380.829 395.183 253.272 395.183C125.714 395.183 22.3081 424.166 22.3081 459.918C22.3081 495.67 125.714 524.653 253.272 524.653Z" fill="#011026"/>
<path opacity="0.4857" d="M253.272 523.519C380.047 523.519 482.819 495.044 482.819 459.918C482.819 424.792 380.047 396.317 253.272 396.317C126.497 396.317 23.725 424.792 23.725 459.918C23.725 495.044 126.497 523.519 253.272 523.519Z" fill="#011026"/>
<path opacity="0.5143" d="M253.272 522.36C379.279 522.36 481.428 494.404 481.428 459.918C481.428 425.432 379.279 397.476 253.272 397.476C127.265 397.476 25.116 425.432 25.116 459.918C25.116 494.404 127.265 522.36 253.272 522.36Z" fill="#011026"/>
<path opacity="0.5429" d="M253.272 521.201C378.51 521.201 480.036 493.764 480.036 459.918C480.036 426.072 378.51 398.635 253.272 398.635C128.033 398.635 26.507 426.072 26.507 459.918C26.507 493.764 128.033 521.201 253.272 521.201Z" fill="#011026"/>
<path opacity="0.5714" d="M253.272 520.067C377.742 520.067 478.645 493.138 478.645 459.918C478.645 426.698 377.742 399.769 253.272 399.769C128.801 399.769 27.8979 426.698 27.8979 459.918C27.8979 493.138 128.801 520.067 253.272 520.067Z" fill="#011026"/>
<path opacity="0.6" d="M253.272 518.908C376.974 518.908 477.254 492.497 477.254 459.918C477.254 427.339 376.974 400.928 253.272 400.928C129.57 400.928 29.2891 427.339 29.2891 459.918C29.2891 492.497 129.57 518.908 253.272 518.908Z" fill="#011026"/>
<path opacity="0.6286" d="M253.272 517.749C376.206 517.749 475.863 491.857 475.863 459.918C475.863 427.979 376.206 402.087 253.272 402.087C130.338 402.087 30.6801 427.979 30.6801 459.918C30.6801 491.857 130.338 517.749 253.272 517.749Z" fill="#011026"/>
<path opacity="0.6571" d="M253.272 516.59C375.423 516.59 474.447 491.217 474.447 459.918C474.447 428.619 375.423 403.246 253.272 403.246C131.12 403.246 32.0969 428.619 32.0969 459.918C32.0969 491.217 131.12 516.59 253.272 516.59Z" fill="#011026"/>
<path opacity="0.6857" d="M253.272 515.456C374.655 515.456 473.056 490.591 473.056 459.918C473.056 429.245 374.655 404.38 253.272 404.38C131.888 404.38 33.4879 429.245 33.4879 459.918C33.4879 490.591 131.888 515.456 253.272 515.456Z" fill="#011026"/>
<path opacity="0.7143" d="M253.272 514.297C373.887 514.297 471.665 489.951 471.665 459.918C471.665 429.885 373.887 405.539 253.272 405.539C132.657 405.539 34.879 429.885 34.879 459.918C34.879 489.951 132.657 514.297 253.272 514.297Z" fill="#011026"/>
<path opacity="0.7429" d="M253.272 513.138C373.119 513.138 470.273 489.311 470.273 459.918C470.273 430.525 373.119 406.698 253.272 406.698C133.425 406.698 36.27 430.525 36.27 459.918C36.27 489.311 133.425 513.138 253.272 513.138Z" fill="#011026"/>
<path opacity="0.7714" d="M253.272 512.005C372.35 512.005 468.882 488.685 468.882 459.918C468.882 431.151 372.35 407.831 253.272 407.831C134.193 407.831 37.661 431.151 37.661 459.918C37.661 488.685 134.193 512.005 253.272 512.005Z" fill="#011026"/>
<path opacity="0.8" d="M253.272 510.845C371.582 510.845 467.491 488.044 467.491 459.918C467.491 431.792 371.582 408.991 253.272 408.991C134.961 408.991 39.052 431.792 39.052 459.918C39.052 488.044 134.961 510.845 253.272 510.845Z" fill="#011026"/>
<path opacity="0.8286" d="M253.272 509.686C370.814 509.686 466.1 487.404 466.1 459.918C466.1 432.432 370.814 410.15 253.272 410.15C135.73 410.15 40.4431 432.432 40.4431 459.918C40.4431 487.404 135.73 509.686 253.272 509.686Z" fill="#011026"/>
<path opacity="0.8571" d="M253.272 508.527C370.031 508.527 464.684 486.764 464.684 459.918C464.684 433.072 370.031 411.309 253.272 411.309C136.512 411.309 41.8599 433.072 41.8599 459.918C41.8599 486.764 136.512 508.527 253.272 508.527Z" fill="#011026"/>
<path opacity="0.8857" d="M253.272 507.394C369.263 507.394 463.293 486.138 463.293 459.918C463.293 433.698 369.263 412.442 253.272 412.442C137.28 412.442 43.251 433.698 43.251 459.918C43.251 486.138 137.28 507.394 253.272 507.394Z" fill="#011026"/>
<path opacity="0.9143" d="M253.272 506.234C368.495 506.234 461.901 485.498 461.901 459.918C461.901 434.338 368.495 413.602 253.272 413.602C138.049 413.602 44.642 434.338 44.642 459.918C44.642 485.498 138.049 506.234 253.272 506.234Z" fill="#011026"/>
<path opacity="0.9429" d="M253.272 505.075C367.726 505.075 460.51 484.858 460.51 459.918C460.51 434.978 367.726 414.761 253.272 414.761C138.817 414.761 46.033 434.978 46.033 459.918C46.033 484.858 138.817 505.075 253.272 505.075Z" fill="#011026"/>
<path opacity="0.9714" d="M253.272 503.942C366.958 503.942 459.119 484.232 459.119 459.918C459.119 435.604 366.958 415.894 253.272 415.894C139.585 415.894 47.4241 435.604 47.4241 459.918C47.4241 484.232 139.585 503.942 253.272 503.942Z" fill="#011026"/>
<path d="M253.272 502.783C366.19 502.783 457.728 483.591 457.728 459.918C457.728 436.245 366.19 417.053 253.272 417.053C140.353 417.053 48.8151 436.245 48.8151 459.918C48.8151 483.591 140.353 502.783 253.272 502.783Z" fill="#011026"/>
</g>
<g opacity="0.23">
<path opacity="0.0285714" d="M539.722 399.794C578.86 399.794 610.588 389.461 610.588 376.713C610.588 363.966 578.86 353.632 539.722 353.632C500.584 353.632 468.857 363.966 468.857 376.713C468.857 389.461 500.584 399.794 539.722 399.794Z" fill="#011026"/>
<path opacity="0.0571429" d="M539.722 399.459C578.647 399.459 610.201 389.276 610.201 376.713C610.201 364.151 578.647 353.967 539.722 353.967C500.798 353.967 469.243 364.151 469.243 376.713C469.243 389.276 500.798 399.459 539.722 399.459Z" fill="#011026"/>
<path opacity="0.0857143" d="M539.722 399.15C578.433 399.15 609.815 389.105 609.815 376.713C609.815 364.322 578.433 354.276 539.722 354.276C501.011 354.276 469.629 364.322 469.629 376.713C469.629 389.105 501.011 399.15 539.722 399.15Z" fill="#011026"/>
<path opacity="0.1143" d="M539.722 398.815C578.22 398.815 609.429 388.92 609.429 376.713C609.429 364.507 578.22 354.611 539.722 354.611C501.224 354.611 470.016 364.507 470.016 376.713C470.016 388.92 501.224 398.815 539.722 398.815Z" fill="#011026"/>
<path opacity="0.1429" d="M539.722 398.506C577.992 398.506 609.016 388.749 609.016 376.713C609.016 364.677 577.992 354.92 539.722 354.92C501.452 354.92 470.428 364.677 470.428 376.713C470.428 388.749 501.452 398.506 539.722 398.506Z" fill="#011026"/>
<path opacity="0.1714" d="M539.722 398.171C577.779 398.171 608.63 388.564 608.63 376.713C608.63 364.862 577.779 355.255 539.722 355.255C501.666 355.255 470.814 364.862 470.814 376.713C470.814 388.564 501.666 398.171 539.722 398.171Z" fill="#011026"/>
<path opacity="0.2" d="M539.722 397.836C577.566 397.836 608.244 388.379 608.244 376.713C608.244 365.047 577.566 355.59 539.722 355.59C501.879 355.59 471.201 365.047 471.201 376.713C471.201 388.379 501.879 397.836 539.722 397.836Z" fill="#011026"/>
<path opacity="0.2286" d="M539.722 397.527C577.352 397.527 607.857 388.209 607.857 376.713C607.857 365.218 577.352 355.899 539.722 355.899C502.092 355.899 471.587 365.218 471.587 376.713C471.587 388.209 502.092 397.527 539.722 397.527Z" fill="#011026"/>
<path opacity="0.2571" d="M539.722 397.192C577.125 397.192 607.445 388.024 607.445 376.713C607.445 365.403 577.125 356.234 539.722 356.234C502.32 356.234 471.999 365.403 471.999 376.713C471.999 388.024 502.32 397.192 539.722 397.192Z" fill="#011026"/>
<path opacity="0.2857" d="M539.722 396.883C576.911 396.883 607.059 387.853 607.059 376.713C607.059 365.574 576.911 356.543 539.722 356.543C502.533 356.543 472.386 365.574 472.386 376.713C472.386 387.853 502.533 396.883 539.722 396.883Z" fill="#011026"/>
<path opacity="0.3143" d="M539.722 396.548C576.698 396.548 606.672 387.668 606.672 376.713C606.672 365.759 576.698 356.878 539.722 356.878C502.747 356.878 472.772 365.759 472.772 376.713C472.772 387.668 502.747 396.548 539.722 396.548Z" fill="#011026"/>
<path opacity="0.3429" d="M539.722 396.239C576.484 396.239 606.286 387.497 606.286 376.713C606.286 365.929 576.484 357.187 539.722 357.187C502.96 357.187 473.159 365.929 473.159 376.713C473.159 387.497 502.96 396.239 539.722 396.239Z" fill="#011026"/>
<path opacity="0.3714" d="M539.722 395.904C576.257 395.904 605.874 387.312 605.874 376.713C605.874 366.114 576.257 357.522 539.722 357.522C503.188 357.522 473.571 366.114 473.571 376.713C473.571 387.312 503.188 395.904 539.722 395.904Z" fill="#011026"/>
<path opacity="0.4" d="M539.722 395.57C576.043 395.57 605.487 387.127 605.487 376.713C605.487 366.299 576.043 357.857 539.722 357.857C503.401 357.857 473.957 366.299 473.957 376.713C473.957 387.127 503.401 395.57 539.722 395.57Z" fill="#011026"/>
<path opacity="0.4286" d="M539.722 395.26C575.83 395.26 605.101 386.957 605.101 376.713C605.101 366.47 575.83 358.166 539.722 358.166C503.615 358.166 474.344 366.47 474.344 376.713C474.344 386.957 503.615 395.26 539.722 395.26Z" fill="#011026"/>
<path opacity="0.4571" d="M539.722 394.926C575.617 394.926 604.715 386.772 604.715 376.713C604.715 366.655 575.617 358.501 539.722 358.501C503.828 358.501 474.73 366.655 474.73 376.713C474.73 386.772 503.828 394.926 539.722 394.926Z" fill="#011026"/>
<path opacity="0.4857" d="M539.722 394.616C575.403 394.616 604.328 386.601 604.328 376.713C604.328 366.826 575.403 358.81 539.722 358.81C504.041 358.81 475.116 366.826 475.116 376.713C475.116 386.601 504.041 394.616 539.722 394.616Z" fill="#011026"/>
<path opacity="0.5143" d="M539.722 394.282C575.175 394.282 603.916 386.416 603.916 376.713C603.916 367.011 575.175 359.145 539.722 359.145C504.269 359.145 475.528 367.011 475.528 376.713C475.528 386.416 504.269 394.282 539.722 394.282Z" fill="#011026"/>
<path opacity="0.5429" d="M539.722 393.947C574.962 393.947 603.53 386.231 603.53 376.713C603.53 367.196 574.962 359.48 539.722 359.48C504.482 359.48 475.915 367.196 475.915 376.713C475.915 386.231 504.482 393.947 539.722 393.947Z" fill="#011026"/>
<path opacity="0.5714" d="M539.722 393.638C574.749 393.638 603.143 386.06 603.143 376.713C603.143 367.366 574.749 359.789 539.722 359.789C504.696 359.789 476.301 367.366 476.301 376.713C476.301 386.06 504.696 393.638 539.722 393.638Z" fill="#011026"/>
<path opacity="0.6" d="M539.722 393.303C574.535 393.303 602.757 385.875 602.757 376.713C602.757 367.551 574.535 360.124 539.722 360.124C504.909 360.124 476.688 367.551 476.688 376.713C476.688 385.875 504.909 393.303 539.722 393.303Z" fill="#011026"/>
<path opacity="0.6286" d="M539.722 392.994C574.308 392.994 602.345 385.705 602.345 376.713C602.345 367.722 574.308 360.433 539.722 360.433C505.137 360.433 477.1 367.722 477.1 376.713C477.1 385.705 505.137 392.994 539.722 392.994Z" fill="#011026"/>
<path opacity="0.6571" d="M539.722 392.659C574.094 392.659 601.958 385.52 601.958 376.713C601.958 367.907 574.094 360.768 539.722 360.768C505.35 360.768 477.486 367.907 477.486 376.713C477.486 385.52 505.35 392.659 539.722 392.659Z" fill="#011026"/>
<path opacity="0.6857" d="M539.722 392.35C573.881 392.35 601.572 385.349 601.572 376.713C601.572 368.078 573.881 361.077 539.722 361.077C505.564 361.077 477.873 368.078 477.873 376.713C477.873 385.349 505.564 392.35 539.722 392.35Z" fill="#011026"/>
<path opacity="0.7143" d="M539.722 392.015C573.667 392.015 601.185 385.164 601.185 376.713C601.185 368.263 573.667 361.412 539.722 361.412C505.777 361.412 478.259 368.263 478.259 376.713C478.259 385.164 505.777 392.015 539.722 392.015Z" fill="#011026"/>
<path opacity="0.7429" d="M539.722 391.68C573.44 391.68 600.773 384.979 600.773 376.713C600.773 368.448 573.44 361.747 539.722 361.747C506.005 361.747 478.671 368.448 478.671 376.713C478.671 384.979 506.005 391.68 539.722 391.68Z" fill="#011026"/>
<path opacity="0.7714" d="M539.722 391.371C573.226 391.371 600.387 384.808 600.387 376.713C600.387 368.618 573.226 362.056 539.722 362.056C506.218 362.056 479.058 368.618 479.058 376.713C479.058 384.808 506.218 391.371 539.722 391.371Z" fill="#011026"/>
<path opacity="0.8" d="M539.722 391.036C573.013 391.036 600 384.623 600 376.713C600 368.803 573.013 362.391 539.722 362.391C506.431 362.391 479.444 368.803 479.444 376.713C479.444 384.623 506.431 391.036 539.722 391.036Z" fill="#011026"/>
<path opacity="0.8286" d="M539.722 390.727C572.8 390.727 599.614 384.453 599.614 376.713C599.614 368.974 572.8 362.7 539.722 362.7C506.645 362.7 479.83 368.974 479.83 376.713C479.83 384.453 506.645 390.727 539.722 390.727Z" fill="#011026"/>
<path opacity="0.8571" d="M539.722 390.392C572.572 390.392 599.202 384.268 599.202 376.713C599.202 369.159 572.572 363.035 539.722 363.035C506.872 363.035 480.243 369.159 480.243 376.713C480.243 384.268 506.872 390.392 539.722 390.392Z" fill="#011026"/>
<path opacity="0.8857" d="M539.722 390.083C572.359 390.083 598.816 384.097 598.816 376.713C598.816 369.33 572.359 363.344 539.722 363.344C507.086 363.344 480.629 369.33 480.629 376.713C480.629 384.097 507.086 390.083 539.722 390.083Z" fill="#011026"/>
<path opacity="0.9143" d="M539.722 389.748C572.145 389.748 598.429 383.912 598.429 376.713C598.429 369.515 572.145 363.679 539.722 363.679C507.299 363.679 481.015 369.515 481.015 376.713C481.015 383.912 507.299 389.748 539.722 389.748Z" fill="#011026"/>
<path opacity="0.9429" d="M539.722 389.413C571.932 389.413 598.043 383.727 598.043 376.713C598.043 369.699 571.932 364.014 539.722 364.014C507.513 364.014 481.402 369.699 481.402 376.713C481.402 383.727 507.513 389.413 539.722 389.413Z" fill="#011026"/>
<path opacity="0.9714" d="M539.722 389.104C571.704 389.104 597.631 383.556 597.631 376.713C597.631 369.87 571.704 364.323 539.722 364.323C507.74 364.323 481.814 369.87 481.814 376.713C481.814 383.556 507.74 389.104 539.722 389.104Z" fill="#011026"/>
<path d="M539.722 388.769C571.491 388.769 597.244 383.372 597.244 376.713C597.244 370.055 571.491 364.658 539.722 364.658C507.954 364.658 482.2 370.055 482.2 376.713C482.2 383.372 507.954 388.769 539.722 388.769Z" fill="#011026"/>
</g>
<path d="M255.487 474.318C255.487 474.318 245.26 480.526 239.567 480.165C233.875 479.805 223.545 479.753 225.709 484.313C227.872 488.872 230.912 489.052 235.91 490.109C240.907 491.165 252.937 489.877 255.513 492.71C258.089 495.544 262.7 498.043 267.569 496.626C272.437 495.209 274.678 494.488 275.503 490.933C276.327 487.378 272.231 475.322 272.231 475.322C272.231 475.322 262.623 479.496 255.487 474.318Z" fill="url(#paint0_linear_53_257)"/>
<path d="M345.106 387.12L331.324 478.388L333.72 479.624L351.958 387.12H345.106Z" fill="url(#paint1_linear_53_257)"/>
<path d="M281.505 411.773L362.674 373.906C362.674 373.906 363.499 438.434 355.101 442.504C346.677 446.574 314.632 435.858 314.4 436.193C314.168 436.528 281.505 411.773 281.505 411.773Z" fill="url(#paint2_linear_53_257)"/>
<path d="M347.527 454.019L355.101 556.028L357.496 557.265L354.379 454.019H347.527Z" fill="url(#paint3_linear_53_257)"/>
<path d="M283.231 421.381L269.449 512.649L271.845 513.885L290.083 421.381H283.231Z" fill="url(#paint4_linear_53_257)"/>
<path d="M409.403 419.758L416.976 521.768L419.372 523.004L416.255 419.758H409.403Z" fill="url(#paint5_linear_53_257)"/>
<path d="M135.497 405.745L137.713 487.661L140.881 489.362V405.745H135.497Z" fill="url(#paint6_linear_53_257)"/>
<path d="M119.449 234.106L62.0556 266.023C57.5218 269.5 55.2292 275.168 56.0793 280.809L69.1653 366.925C70.6852 376.945 77.3828 385.42 86.7851 389.181L139.876 411.36C144.822 413.344 150.386 413.035 155.075 410.536L209.274 380.732L147.476 308.346L119.449 234.106Z" fill="url(#paint7_linear_53_257)"/>
<path d="M125.296 239.439L73.9052 270.737C69.3715 274.215 67.0788 279.882 67.9289 285.523L79.289 360.871C80.8089 370.892 87.5065 379.367 96.9088 383.128L139.258 400.052C144.204 402.035 149.768 401.726 154.457 399.228L212.519 368.238L149.562 307.831L132.741 242.453C131.891 239.207 128.156 237.687 125.296 239.439Z" fill="url(#paint8_linear_53_257)"/>
<path d="M78.6966 384.209L48.4545 450.799L50.6698 452.01L83.2562 387.017L78.6966 384.209Z" fill="url(#paint9_linear_53_257)"/>
<path d="M240.624 339.877L242.839 421.793L246.007 423.493V339.877H240.624Z" fill="url(#paint10_linear_53_257)"/>
<path d="M224.601 168.238L167.182 200.129C162.648 203.607 160.356 209.274 161.206 214.915L174.292 301.031C175.812 311.051 182.509 319.526 191.911 323.287L245.003 345.467C249.949 347.45 255.513 347.141 260.201 344.642L314.374 314.864L257.187 263.009L224.601 168.238Z" fill="url(#paint11_linear_53_257)"/>
<path d="M230.423 173.545L179.032 204.843C174.498 208.321 172.205 213.988 173.055 219.629L184.415 294.977C185.935 304.998 192.633 313.473 202.035 317.234L244.385 334.158C249.33 336.141 254.895 335.832 259.583 333.334L317.646 302.344L256.208 262.365L237.841 176.559C237.017 173.339 233.282 171.819 230.423 173.545Z" fill="url(#paint12_linear_53_257)"/>
<path d="M158.862 452.396C158.862 452.396 153.71 459.557 154.663 462.159C155.616 464.761 158.346 470.351 166.28 466.538C174.214 462.7 178.181 465.791 182.406 465.482C186.657 465.173 195.673 460.923 189.516 457.522C183.359 454.096 175.065 452.035 175.065 452.035C175.065 452.035 164.812 456.157 158.862 452.396Z" fill="url(#paint13_linear_53_257)"/>
<path d="M166.255 376.404L157.831 449.717C157.831 449.717 158.424 454.818 163.833 455.127C169.243 455.436 174.91 452.731 174.91 452.731L196.651 362.211L166.255 376.404Z" fill="#222222"/>
<path d="M94.2556 327.229C94.2556 327.229 87.5065 348.249 93.0964 358.347C115.301 398.481 181.247 377.126 181.247 377.126C181.247 377.126 169.964 411.695 173.081 430.655C176.198 449.64 177.641 460.923 177.641 460.923C177.641 460.923 177.641 463.086 186.296 463.576C194.951 464.065 196.857 459.97 196.857 459.97C196.857 459.97 206.08 378.671 206.801 369.552C207.522 360.433 214.658 343.895 200.49 338.872C186.322 333.849 134.415 331.917 134.415 331.917L94.2556 327.229Z" fill="url(#paint14_linear_53_257)"/>
<path d="M196.136 460.948C196.136 460.948 206.852 470.686 213.37 473.494C219.887 476.301 220.737 478.182 216.924 480.552C213.138 482.896 205.616 486.992 198.738 481.84C191.834 476.688 186.991 475.477 183.411 475.786C179.856 476.095 175.76 476.095 175.915 470.48C176.069 464.864 177.666 460.974 177.666 460.974C177.666 460.974 187.996 466.075 196.136 460.948Z" fill="url(#paint15_linear_53_257)"/>
<path d="M103.684 226.842C103.684 226.842 85.9095 236.064 88.5885 259.016C91.2933 281.968 94.436 312.211 93.3026 321.046C92.1692 329.882 92.1692 329.882 92.1692 329.882C92.1692 329.882 96.7802 351.726 115.224 352.216C133.668 352.705 142.143 340.418 142.143 340.418C142.143 340.418 142.118 257.625 138.743 250.567C135.369 243.483 121.639 226.842 118.032 225.94C114.503 225.039 103.684 226.842 103.684 226.842Z" fill="url(#paint16_linear_53_257)"/>
<path d="M198.197 278.259C198.197 278.259 191.396 298.455 200.464 305.513C209.557 312.545 237.481 326.404 237.481 326.404L299.923 300.747L253.4 258.965L198.197 278.259Z" fill="url(#paint17_linear_53_257)"/>
<path d="M231.917 408.965V548.635L235.214 547.347L238.46 408.501L231.917 408.965Z" fill="url(#paint18_linear_53_257)"/>
<path d="M118.187 353.993V493.664L121.458 492.376L124.73 353.529L118.187 353.993Z" fill="url(#paint19_linear_53_257)"/>
<path d="M431.402 307.162V446.832L434.699 445.544L437.945 306.698L431.402 307.162Z" fill="url(#paint20_linear_53_257)"/>
<path d="M317.672 252.19V391.86L320.969 390.572L324.215 251.726L317.672 252.19Z" fill="url(#paint21_linear_53_257)"/>
<path d="M493.226 59.7631V250.825C493.226 253.504 490.443 255.307 487.996 254.173L367.749 199.047C364.941 197.759 363.138 194.951 363.138 191.886V0.154579L493.226 59.7631Z" fill="url(#paint22_linear_53_257)" stroke="#6D6D6D" stroke-width="0.1932" stroke-miterlimit="10"/>
<path d="M367.697 2.24113L490.392 58.4751C492.118 59.2736 493.226 60.9738 493.226 62.88V77.7177L363.138 18.1092V5.152C363.138 2.80785 365.559 1.26225 367.697 2.24113Z" fill="url(#paint23_linear_53_257)"/>
<path d="M390.778 131.608L463.009 164.606C463.705 164.915 464.143 165.611 464.143 166.383V166.59C464.143 167.774 462.906 168.573 461.824 168.058L390.263 135.343C389.387 134.931 388.821 134.055 388.821 133.102V132.844C388.821 131.865 389.877 131.195 390.778 131.608Z" fill="#B2B2B2"/>
<path d="M390.418 144.694L463.138 178.027C463.756 178.31 464.143 178.903 464.143 179.573V179.753C464.143 180.783 463.061 181.479 462.108 181.041L389.954 147.965C389.181 147.604 388.692 146.832 388.692 146.007V145.801C388.718 144.925 389.619 144.333 390.418 144.694Z" fill="#B2B2B2"/>
<path d="M390.418 157.677L463.138 191.01C463.756 191.293 464.143 191.886 464.143 192.556V192.736C464.143 193.766 463.061 194.462 462.108 194.024L389.954 160.948C389.181 160.587 388.692 159.815 388.692 158.99V158.758C388.718 157.883 389.619 157.316 390.418 157.677Z" fill="#B2B2B2"/>
<path d="M390.186 170.634L452.37 200.155C452.886 200.412 453.22 200.928 453.22 201.52V201.675C453.22 202.602 452.293 203.22 451.494 202.834L389.774 173.545C389.104 173.236 388.692 172.54 388.692 171.793V171.587C388.718 170.814 389.49 170.299 390.186 170.634Z" fill="#B2B2B2"/>
<path d="M390.418 183.617L428.079 200.85C428.697 201.134 429.083 201.726 429.083 202.396V202.576C429.083 203.607 428.001 204.302 427.048 203.864L389.954 186.914C389.181 186.553 388.692 185.781 388.692 184.956V184.725C388.718 183.849 389.619 183.256 390.418 183.617Z" fill="#B2B2B2"/>
<path d="M374.034 15.0438C374.034 15.8939 373.365 16.2545 372.515 15.8939C371.665 15.5333 370.995 14.5286 370.995 13.7043C370.995 12.8542 371.665 12.4936 372.515 12.8542C373.339 13.2149 374.034 14.1937 374.034 15.0438Z" fill="#FFFDFE"/>
<path d="M379.238 17.3364C379.238 18.1865 378.568 18.5472 377.718 18.1865C376.868 17.8259 376.198 16.8212 376.198 15.9969C376.198 15.1469 376.868 14.7862 377.718 15.1469C378.568 15.5333 379.238 16.5121 379.238 17.3364Z" fill="#FFFDFE"/>
<path d="M384.441 19.6548C384.441 20.5049 383.772 20.8656 382.922 20.5049C382.071 20.1443 381.402 19.1396 381.402 18.3153C381.402 17.491 382.071 17.1046 382.922 17.4653C383.772 17.8259 384.441 18.8048 384.441 19.6548Z" fill="#FFFDFE"/>
<path d="M376.92 385.704C376.92 385.704 387.352 404.689 375.4 413.086C363.447 421.484 337.12 430.423 330.99 425.786C326.919 422.721 307.934 413.473 295.595 407.6C290.186 405.024 282.071 407.007 281.118 412.906L272.849 475.451C272.849 475.451 269.32 479.599 262.597 478.568C255.874 477.538 252.602 473.004 252.602 473.004C252.602 473.004 254.148 384.287 257.831 373.88C261.515 363.473 319.295 360.948 333.076 370.016C346.858 379.083 376.92 385.704 376.92 385.704Z" fill="url(#paint24_linear_53_257)"/>
<path d="M242.581 407.059L434.673 316.126C439.027 314.065 439.052 307.857 434.725 305.771L326.43 253.478C321.613 251.159 315.997 251.134 311.154 253.426L120.531 343.663C115.044 346.265 115.018 354.045 120.479 356.672L224.678 406.981C230.294 409.712 236.888 409.738 242.581 407.059Z" fill="#B5B5B4"/>
<path d="M242.581 403.092L434.673 312.159C439.027 310.098 439.052 303.89 434.725 301.803L326.43 249.511C321.613 247.192 315.997 247.167 311.154 249.459L120.531 339.696C115.044 342.298 115.018 350.078 120.479 352.705L224.678 403.014C230.294 405.771 236.888 405.796 242.581 403.092Z" fill="url(#paint25_linear_53_257)"/>
<path d="M251.546 169.32C251.546 169.32 261.077 173.107 264.503 187.043C267.955 201.005 273.803 230.964 274.421 232.793C275.039 234.622 298.944 245.003 298.944 245.003C298.944 245.003 294.9 243.535 292.066 248.996C289.233 254.457 291.268 257.909 291.268 257.909C291.268 257.909 259.068 249.202 256.44 242.71C253.787 236.219 251.546 169.32 251.546 169.32Z" fill="url(#paint26_linear_53_257)"/>
<path d="M240.237 164.812C253.581 168.831 260.175 170.402 259.531 200.438C258.862 230.474 259.583 263.679 259.583 263.679C259.583 263.679 260.382 268.985 240.263 279.109C221.69 288.46 200.155 281.736 200.155 281.736C200.155 281.736 179.444 190.108 183.591 184.622C187.764 179.16 232.973 162.623 240.237 164.812Z" fill="url(#paint27_linear_53_257)"/>
<path d="M191.602 183.797C185.806 181.608 173.416 185.343 177.589 211.18C181.762 237.043 193.586 280.629 200.155 281.736C206.724 282.844 219.217 284.158 226.662 266.409C234.106 248.661 240.237 220.608 240.237 220.608C240.237 220.608 234.544 221.046 230.603 217.105C226.662 213.164 226.224 211.618 226.224 211.618C226.224 211.618 211.128 254.122 208.475 253.478C205.848 252.808 204.302 188.614 191.602 183.797Z" fill="url(#paint28_linear_53_257)"/>
<path d="M227.718 213.936C227.718 213.936 230.989 207.11 231.608 204.637C232.2 202.138 231.917 199.433 235.085 196.626C238.254 193.844 240.752 192.556 240.752 192.556C240.752 192.556 243.921 193.921 240.752 196.471C237.584 199.047 238.254 199.871 239.31 199.562C240.366 199.253 246.858 192.762 251.314 192.53C255.77 192.298 259.763 196.6 254.637 199.717C249.511 202.808 249.279 208.939 247.527 211.566C245.801 214.22 238.022 220.505 238.022 220.505C238.022 220.505 228.233 219.475 227.718 213.936Z" fill="url(#paint29_linear_53_257)"/>
<path d="M290.572 255.152C290.572 255.152 295.286 257.368 297.501 259.892C299.717 262.417 304.972 264.22 305.049 263.524C305.126 262.829 303.323 260.51 302.138 259.428C300.953 258.346 301.675 256.672 305.77 259.428C309.866 262.185 315.07 264.245 317.027 262.03C318.985 259.815 318.444 257.239 313.807 252.731C309.171 248.249 297.604 244.823 297.604 244.823C297.604 244.823 291.216 243.715 290.572 255.152Z" fill="url(#paint30_linear_53_257)"/>
<path d="M206.311 153.787L206.234 174.06C206.234 174.06 210.459 179.521 218.779 179.65C227.1 179.779 228.465 174.884 228.465 174.884V162.571L206.311 153.787Z" fill="url(#paint31_linear_53_257)"/>
<path d="M235.369 133.771C235.369 133.771 236.348 155.281 236.27 159.712C236.193 164.142 231.917 171.175 229.135 171.819C226.353 172.437 216.693 172.875 210.871 164.58C205.075 156.311 197.192 149.511 201.391 140.392C205.59 131.273 213.885 131.865 219.346 130.989C224.833 130.139 235.369 133.771 235.369 133.771Z" fill="url(#paint32_linear_53_257)"/>
<path d="M238.048 130.165C238.048 130.165 238.898 139.799 226.636 142.246C214.374 144.694 213.189 141.499 213.189 141.499C213.189 141.499 214.22 146.213 213.164 149.047C212.004 152.138 211.463 154.482 210.15 154.611C208.836 154.74 207.805 146.342 205.075 146.548C202.344 146.754 203.246 151.031 205.281 154.276C207.316 157.522 207.445 160.562 205.539 159.66C203.632 158.784 196.523 153.426 193.277 143.637C190.057 133.874 198.197 130.371 198.197 130.371C198.197 130.371 196.317 120.711 205.178 118.496C214.039 116.306 236.013 124.369 238.048 130.165Z" fill="url(#paint33_linear_53_257)"/>
<path d="M129.341 252.963C123.287 252.473 109.093 261.953 113.369 281.324C117.646 300.67 123.261 318.47 123.261 318.47C123.261 318.47 129.341 319.346 135.626 317.311C141.937 315.302 147.476 307.007 147.476 307.007C147.476 307.007 146.445 254.302 129.341 252.963Z" fill="url(#paint34_linear_53_257)"/>
<path d="M140.16 263.627C140.16 263.627 185.42 288.408 189.336 288.846C193.251 289.284 199.382 288.434 202.937 292.195C206.492 295.956 211.592 303.298 209.634 304.328C207.702 305.384 203.555 308.939 200.618 307.471C197.682 306.002 194.127 298.893 190.778 298.455C187.429 298.042 190.366 299.923 190.778 302.654C191.19 305.384 189.104 306.621 189.104 306.621C189.104 306.621 182.818 297.836 176.971 295.724C171.098 293.638 145.26 283.05 145.26 283.05C145.26 283.05 143.38 269.423 140.16 263.627Z" fill="url(#paint35_linear_53_257)"/>
<path d="M126.121 318.65C126.121 318.65 129.624 339.027 134.312 338.872C139.001 338.717 180.577 322.617 184.956 322.18C189.336 321.742 192.865 322.566 195.776 318.625C198.712 314.709 202.499 312.21 204.998 311.618C207.496 311.026 206.749 306.492 201.056 305.899C195.338 305.307 192.427 307.806 192.427 307.806C192.427 307.806 195.853 305.333 193.998 303.555C192.143 301.803 187.584 309.841 179.701 312.339C171.793 314.838 148.506 318.084 147.476 317.259C146.471 316.435 146.033 308.913 146.033 308.913C146.033 308.913 137.249 318.908 126.121 318.65Z" fill="url(#paint36_linear_53_257)"/>
<path d="M136.528 204.044C136.528 204.044 139.67 208.939 138.537 213.267C137.403 217.594 136.115 227.744 132.689 228.182C129.263 228.619 126.971 226.61 125.837 228.182C124.704 229.753 125.116 233.05 125.116 233.05C125.116 233.05 125.554 234.57 120.273 235.369C114.992 236.167 108.398 232.612 108.398 232.612C108.398 232.612 93.5343 214.194 105.951 205.77C118.393 197.321 136.528 204.044 136.528 204.044Z" fill="url(#paint37_linear_53_257)"/>
<path d="M141.963 197.759C142.813 203.04 139.387 211.798 130.113 213.267C120.84 214.761 120.685 215.327 120.685 215.894C120.685 216.461 118.959 208.037 115.121 208.037C111.257 208.037 111.824 213.086 113.55 215.92C115.276 218.753 120.119 233.153 107.986 240.521C95.8527 247.888 101.133 263.473 87.8413 268.753C74.5492 274.034 51.1334 266.461 54.9716 246.909C58.8356 227.332 82.6893 231.762 86.5533 223.622C90.4173 215.482 88.3308 197.553 101.984 188.202C115.095 179.186 139.516 182.767 141.963 197.759Z" fill="url(#paint38_linear_53_257)"/>
<path d="M389.439 272.798C389.439 272.798 398.197 279.727 401.288 292.659C404.38 305.616 402.834 338.511 400.438 339.851C398.043 341.165 384.622 340.057 383.256 332.2C381.865 324.343 389.439 272.798 389.439 272.798Z" fill="url(#paint39_linear_53_257)"/>
<path d="M389.439 272.798C396.317 276.069 385.652 338.434 385.137 345.647C384.622 352.86 381.865 381.659 381.865 381.659C381.865 381.659 371.561 398.223 350.799 395.158C330.036 392.092 324.215 383.772 324.215 383.772C324.215 383.772 323.957 331.891 324.215 313.833C324.472 295.801 320.943 284.029 320.943 284.029C320.943 284.029 362.983 267.594 374.137 268.625C385.317 269.707 389.439 272.798 389.439 272.798Z" fill="white"/>
<path d="M320.943 284.081C320.943 284.081 331.685 294.797 328.954 311.129C326.198 327.46 315.199 349.434 308.681 354.096C302.164 358.733 291.319 358.733 291.499 343.947C291.654 329.161 318.444 283.669 320.943 284.081Z" fill="url(#paint40_linear_53_257)"/>
<path d="M371.999 238.151C371.999 238.151 373.571 241.19 373.854 243.045C374.112 244.9 375.838 248.455 375.709 250.696C375.58 252.937 375.709 262.313 373.854 262.829C371.999 263.344 363.138 267.234 363.138 267.234C363.138 267.234 348.377 253.143 349.691 251.7C351.005 250.284 371.999 238.151 371.999 238.151Z" fill="url(#paint41_linear_53_257)"/>
<path d="M372.901 245.982C367.878 251.262 364.915 258.089 368.007 263.756C371.098 269.423 384.544 295.544 367.002 311.644C349.459 327.744 321.922 316.925 320.969 300.825C320.016 284.725 329.341 274.987 328.104 264.529C326.868 254.07 322.283 235.91 330.449 226.533C338.64 217.156 357.857 210.716 369.063 216.615C388.202 226.713 377.924 240.701 372.901 245.982Z" fill="url(#paint42_linear_53_257)"/>
<path d="M352.988 356.904L346.471 423.571C345.595 432.432 336.193 437.713 328.182 433.849L281.505 411.747L299.897 427.615L333.025 447.141C341.448 451.108 351.237 451.005 359.583 446.883L403.401 425.245C409.068 422.437 412.855 416.847 413.318 410.536L427.254 333.282C427.718 327.203 413.421 320.351 407.96 323.004L360.768 345.776C356.415 347.888 353.478 352.087 352.988 356.904Z" fill="url(#paint43_linear_53_257)"/>
<path d="M362.417 361.901L355.899 428.568C355.023 437.43 345.621 442.71 337.61 438.846L281.505 411.747V423.468L342.453 452.138C350.876 456.105 360.665 456.002 369.011 451.881L412.829 430.242C418.496 427.435 422.283 421.845 422.746 415.534L428.697 335.704C429.161 329.624 422.849 325.348 417.388 328.001L370.196 350.773C365.817 352.86 362.88 357.084 362.417 361.901Z" fill="url(#paint44_linear_53_257)"/>
<path d="M289.336 25.0129V61.1799C289.336 67.9805 284.853 73.4931 279.341 73.4931H253.813L241.396 97.4756L228.929 73.4931H207.316C201.803 73.4931 197.321 67.9805 197.321 61.1799V25.0129C197.321 18.2123 201.803 12.6997 207.316 12.6997H279.341C284.853 12.6997 289.336 18.2381 289.336 25.0129Z" fill="#2D261F"/>
<path d="M473.751 144.513L382.612 102.267C382.2 102.061 381.865 101.571 381.865 101.159V29.6497C381.865 29.2376 382.2 29.0572 382.612 29.2376L473.751 71.4839C474.163 71.6899 474.498 72.1794 474.498 72.5915V144.127C474.498 144.539 474.163 144.719 473.751 144.513Z" fill="white"/>
<path d="M386.682 50.438L469.707 88.9233" stroke="#999999" stroke-width="0.257599" stroke-miterlimit="10"/>
<path d="M386.682 60.6131L469.707 99.0985" stroke="#999999" stroke-width="0.257599" stroke-miterlimit="10" stroke-linecap="round"/>
<path d="M386.682 70.7883L469.707 109.274" stroke="#999999" stroke-width="0.257599" stroke-miterlimit="10" stroke-linecap="round"/>
<path d="M386.682 80.9635L469.707 119.449" stroke="#999999" stroke-width="0.257599" stroke-miterlimit="10" stroke-linecap="round"/>
<path d="M386.682 91.1387L469.707 129.624" stroke="#999999" stroke-width="0.257599" stroke-miterlimit="10" stroke-linecap="round"/>
<path d="M386.682 101.314L469.707 139.799" stroke="#999999" stroke-width="0.257599" stroke-miterlimit="10"/>
<path d="M386.682 111.489L469.707 149.974" stroke="#999999" stroke-width="0.257599" stroke-miterlimit="10"/>
<path d="M417.028 112.391L407.265 107.857V92.2206L417.028 96.7543V112.391Z" fill="url(#paint45_linear_53_257)"/>
<path d="M432.381 119.5L422.592 114.967V88.7687L432.381 93.2767V119.5Z" fill="url(#paint46_linear_53_257)"/>
<path d="M447.708 126.61L437.945 122.076V84.2092L447.708 88.743V126.61Z" fill="url(#paint47_linear_53_257)"/>
<path d="M463.061 133.72L453.298 129.186V84.1319L463.061 88.6657V133.72Z" fill="url(#paint48_linear_53_257)"/>
<path d="M415.997 121.819L408.269 118.238C407.702 117.981 407.239 117.13 407.239 116.358C407.239 115.585 407.702 115.147 408.269 115.405L415.997 118.985C416.564 119.243 417.028 120.093 417.028 120.866C417.028 121.664 416.564 122.076 415.997 121.819Z" fill="#DDD2CE"/>
<path d="M400.979 115.379L394.024 112.159C393.251 111.798 392.607 110.871 392.607 110.098C392.607 109.325 393.251 108.99 394.024 109.351L400.979 112.571C401.752 112.932 402.396 113.859 402.396 114.632C402.396 115.405 401.752 115.739 400.979 115.379Z" fill="#DDD2CE"/>
<path d="M430.964 128.748L424.009 125.528C423.236 125.168 422.592 124.24 422.592 123.467C422.592 122.695 423.236 122.36 424.009 122.72L430.964 125.94C431.737 126.301 432.381 127.228 432.381 128.001C432.381 128.774 431.737 129.109 430.964 128.748Z" fill="#DDD2CE"/>
<path d="M446.317 135.858L439.361 132.638C438.589 132.277 437.945 131.35 437.945 130.577C437.945 129.804 438.589 129.469 439.361 129.83L446.317 133.05C447.089 133.411 447.733 134.338 447.733 135.111C447.708 135.884 447.089 136.219 446.317 135.858Z" fill="#DDD2CE"/>
<path d="M461.644 142.968L454.689 139.748C453.916 139.387 453.272 138.46 453.272 137.687C453.272 136.914 453.916 136.579 454.689 136.94L461.644 140.16C462.417 140.52 463.061 141.448 463.061 142.221C463.061 142.993 462.417 143.328 461.644 142.968Z" fill="#DDD2CE"/>
<path d="M525.632 128.413C525.632 128.413 511.592 170.479 509.403 170.814C507.213 171.149 480.629 158.449 480.629 158.449C480.629 158.449 475.322 159.068 473.751 163.756C472.18 168.444 472.025 169.552 472.025 169.552C472.025 169.552 509.403 193.045 514.091 191.937C518.779 190.83 534.467 168.753 534.467 168.753L525.632 128.413Z" fill="url(#paint49_linear_53_257)"/>
<path d="M523.597 349.021C523.597 349.021 521.433 355.049 517.517 357.857C513.602 360.691 502.937 366.641 507.806 369.939C512.674 373.236 519.578 374.318 525.065 368.985C530.552 363.653 529.289 361.309 536.193 359.892C543.097 358.475 542.582 356.646 542.427 352.885C542.272 349.125 540.624 347.218 540.624 347.218C540.624 347.218 537.43 353.272 523.597 349.021Z" fill="url(#paint50_linear_53_257)"/>
<path d="M566.332 361.824C566.332 361.824 563.988 370.248 559.892 372.721C555.822 375.194 549.794 378.439 549.073 382.793C548.378 387.172 557.394 389.336 564.246 385.549C571.098 381.762 567.491 383.102 572.85 377.229C577.074 372.592 583.488 371.845 583.36 368.058C583.205 364.271 582.613 359.094 582.613 359.094C582.613 359.094 573.494 366.667 566.332 361.824Z" fill="url(#paint51_linear_53_257)"/>
<path d="M464.374 162.7L457.754 120.891C457.6 119.99 458.192 119.114 459.068 118.908C460.073 118.65 461.077 119.32 461.232 120.351L467.929 162.726H464.374V162.7Z" fill="url(#paint52_linear_53_257)"/>
<path d="M479.058 158.81C479.058 158.81 477.435 151.726 475.116 150.696C472.798 149.691 465.147 148.017 465.147 148.017C465.147 148.017 462.752 150.979 466.616 152.164C470.505 153.375 470.505 153.375 470.505 153.375C470.505 153.375 468.754 152.885 464.04 153.4C459.325 153.916 460.021 156.492 460.897 163.885C461.773 171.278 463.396 172.386 465.431 172.025C467.466 171.664 472.025 168.882 472.025 168.882C472.025 168.882 474.575 161.206 479.058 158.81Z" fill="url(#paint53_linear_53_257)"/>
<path d="M521.793 221.252V293.122C521.793 293.122 522.309 308.321 523.339 319.14C524.369 329.959 523.081 349.794 523.081 349.794C523.081 349.794 523.597 353.916 532.613 351.855C541.629 349.794 540.598 347.218 540.598 347.218C540.598 347.218 542.144 335.884 544.205 319.398C546.265 302.911 544.205 298.274 544.205 298.274L557.6 235.678L521.793 221.252Z" fill="url(#paint54_linear_53_257)"/>
<path d="M546.523 234.647L551.495 290.392C551.443 297.141 552.68 303.839 555.178 310.098C558.192 317.723 559.815 323.004 561.103 331.118C563.267 344.9 564.555 361.644 564.555 361.644C564.555 361.644 564.452 364.323 573.777 364.014C583.102 363.705 583.36 359.068 583.36 359.068C583.36 359.068 585.163 350.567 584.905 331.247C584.648 311.927 580.268 300.078 580.268 300.078C580.268 300.078 581.556 276.121 583.36 257.574C585.163 239.027 580.011 232.587 580.011 232.587C580.011 232.587 564.735 236.296 546.523 234.647Z" fill="url(#paint55_linear_53_257)"/>
<path d="M539.928 123.364C539.928 123.364 584.029 135.626 590.701 142.143C597.347 148.661 590.83 207.084 588.666 208.81C586.502 210.536 583.36 213.241 583.36 213.241V230.423C583.36 233.488 581.376 236.219 578.465 237.172C570.815 239.671 555.436 243.535 541.371 240.031C521.69 235.111 521.793 221.304 521.793 221.304C521.793 221.304 522.36 140.108 523.519 133.591C524.678 127.1 531.531 122.643 539.928 123.364Z" fill="url(#paint56_linear_53_257)"/>
<path d="M590.675 142.169C590.675 142.169 573.21 140.701 576.533 159.48C579.135 174.034 586.373 196.162 584.544 197.27C582.716 198.377 552.319 213.086 552.319 213.086C552.319 213.086 556.904 215.121 557.677 219.526C558.45 223.931 557.677 224.086 557.677 224.086C557.677 224.086 604.071 209.737 605.487 206.749C606.93 203.761 597.27 144.977 590.675 142.169Z" fill="url(#paint57_linear_53_257)"/>
<path d="M565.997 113.911L566.049 131.942C566.049 131.942 560.356 137.429 552.963 137.558C545.57 137.687 546.291 132.689 546.291 132.689V121.742L565.997 113.911Z" fill="url(#paint58_linear_53_257)"/>
<path d="M566.049 131.118L550.645 137.043L557.6 142.71L571.124 132.947C571.124 132.921 569.836 128.491 566.049 131.118Z" fill="white"/>
<path d="M546.291 131.479L548.841 136.502L542.144 137.893V127.486C542.144 127.486 544.746 130.964 546.291 131.479Z" fill="white"/>
<path d="M538.512 99.047C538.512 99.047 538.95 118.109 539.568 122.025C540.186 125.915 544.797 131.608 547.321 131.814C549.846 132.02 558.424 131.221 562.52 123.21C566.616 115.198 572.747 108.269 567.929 100.747C563.112 93.2253 555.874 94.7451 550.954 94.6678C546.059 94.539 538.512 99.047 538.512 99.047Z" fill="url(#paint59_linear_53_257)"/>
<path d="M534.39 96.1619C534.39 96.1619 534.931 102.937 546.033 103.607C557.136 104.276 558.501 102.112 558.501 102.112C558.501 102.112 556.878 107.033 559.248 108.759C561.618 110.484 560.768 114.374 561.953 114.323C563.138 114.271 563.009 106.749 565.431 106.595C567.852 106.44 567.594 110.304 566.178 113.421C564.761 116.538 565.044 119.217 566.616 118.212C568.187 117.208 573.236 112.751 574.885 103.761C576.533 94.7451 569.526 91.5251 569.526 91.5251C569.526 91.5251 570.016 82.7925 561.927 81.9167C553.864 81.0408 535.472 90.8038 534.39 96.1619Z" fill="url(#paint60_linear_53_257)"/>
<path d="M548.635 136.45L544.385 137.532L545.57 138.151L535.189 218.599L539.825 223.957L547.321 219.681L551.701 139.129L553.272 139.336L550.799 136.991L548.635 136.45Z" fill="url(#paint61_linear_53_257)"/>
<path d="M553.478 213.73C553.478 213.73 548.738 212.906 545.647 213.421C542.556 213.936 540.031 215.224 540.031 215.224C540.031 215.224 538.099 217.105 541.835 216.77C545.57 216.435 546.497 216.796 546.497 216.796C546.497 216.796 542.659 219.397 538.357 220.041C534.029 220.685 534.622 223.983 536.683 224.421C538.743 224.884 535.575 226.945 537.018 228.027C538.434 229.135 538.434 230.732 540.83 231.968C543.226 233.205 546.059 234.416 548.764 231.968C551.469 229.521 558.063 223.004 558.063 223.004C558.063 223.004 558.991 215.765 553.478 213.73Z" fill="url(#paint62_linear_53_257)"/>
<path d="M249.64 56.3112C251.159 56.3112 252.55 55.9506 253.838 55.2036C255.126 54.4565 256.131 53.4519 256.852 52.1897C257.599 50.9017 257.96 49.5106 257.96 47.9908C257.96 46.4709 257.599 45.0799 256.852 43.8434C256.105 42.607 255.101 41.5766 253.838 40.8295C252.55 40.0825 251.159 39.6961 249.64 39.7218H237.197C236.038 39.7218 235.059 39.3097 234.261 38.5111C233.462 37.6868 233.05 36.7079 233.05 35.5745C233.05 34.4411 233.462 33.4622 234.261 32.6379C235.085 31.8135 236.064 31.4271 237.197 31.4271H255.899C256.466 31.4271 256.955 31.2211 257.342 30.8089C257.754 30.3967 257.96 29.9073 257.96 29.3148C257.96 28.7223 257.754 28.2587 257.342 27.8723C256.93 27.4859 256.44 27.2798 255.899 27.254H237.197C235.678 27.254 234.287 27.6147 232.999 28.3617C231.711 29.1087 230.706 30.1134 229.985 31.3756C229.238 32.6636 228.877 34.0547 228.877 35.5745C228.877 37.0943 229.238 38.4854 229.985 39.7218C230.732 40.9841 231.736 41.9887 232.999 42.7358C234.261 43.4828 235.678 43.8692 237.197 43.8434H249.64C250.773 43.8434 251.752 44.2556 252.576 45.0541C253.4 45.8785 253.787 46.8573 253.787 47.9908C253.787 49.1242 253.375 50.1031 252.576 50.9274C251.752 51.7517 250.773 52.1381 249.64 52.1381H230.938C230.345 52.1381 229.882 52.3442 229.495 52.7564C229.109 53.1685 228.903 53.658 228.877 54.2504C228.851 54.8429 229.057 55.3066 229.495 55.693C229.933 56.0794 230.397 56.2855 230.938 56.3112H249.64Z" fill="white"/>
<path d="M230.938 58.8872C233.484 58.8872 235.549 56.8228 235.549 54.2762C235.549 51.7296 233.484 49.6652 230.938 49.6652C228.391 49.6652 226.327 51.7296 226.327 54.2762C226.327 56.8228 228.391 58.8872 230.938 58.8872Z" fill="white"/>
<defs>
<linearGradient id="paint0_linear_53_257" x1="250.665" y1="473.99" x2="250.445" y2="490.811" gradientUnits="userSpaceOnUse">
<stop stop-color="#222222"/>
<stop offset="1" stop-color="#222222"/>
</linearGradient>
<linearGradient id="paint1_linear_53_257" x1="345.679" y1="388.558" x2="338.821" y2="463.542" gradientUnits="userSpaceOnUse">
<stop stop-color="#DDD2CE"/>
<stop offset="1" stop-color="#FEFEFE"/>
</linearGradient>
<linearGradient id="paint2_linear_53_257" x1="260.212" y1="414.843" x2="353.788" y2="408.823" gradientUnits="userSpaceOnUse">
<stop stop-color="#FF5C5C"/>
<stop offset="1" stop-color="#871818"/>
</linearGradient>
<linearGradient id="paint3_linear_53_257" x1="357.017" y1="456.442" x2="349.517" y2="538.439" gradientUnits="userSpaceOnUse">
<stop stop-color="#DDD2CE"/>
<stop offset="1" stop-color="#FEFEFE"/>
</linearGradient>
<linearGradient id="paint4_linear_53_257" x1="283.802" y1="422.817" x2="276.943" y2="497.801" gradientUnits="userSpaceOnUse">
<stop stop-color="#DDD2CE"/>
<stop offset="1" stop-color="#FEFEFE"/>
</linearGradient>
<linearGradient id="paint5_linear_53_257" x1="418.894" y1="422.183" x2="411.394" y2="504.18" gradientUnits="userSpaceOnUse">
<stop stop-color="#DDD2CE"/>
<stop offset="1" stop-color="#FEFEFE"/>
</linearGradient>
<linearGradient id="paint6_linear_53_257" x1="153.031" y1="442.77" x2="131.546" y2="449.705" gradientUnits="userSpaceOnUse">
<stop stop-color="#DDD2CE"/>
<stop offset="1" stop-color="#FEFEFE"/>
</linearGradient>
<linearGradient id="paint7_linear_53_257" x1="89.6236" y1="233.938" x2="136.769" y2="367.645" gradientUnits="userSpaceOnUse">
<stop stop-color="#C18A87"/>
<stop offset="1" stop-color="#871F18"/>
</linearGradient>
<linearGradient id="paint8_linear_53_257" x1="194.5" y1="401" x2="116" y2="55.5" gradientUnits="userSpaceOnUse">
<stop stop-color="#AB2C2C"/>
<stop offset="1" stop-color="#154677"/>
<stop offset="1" stop-color="#A58584"/>
</linearGradient>
<linearGradient id="paint9_linear_53_257" x1="90.922" y1="409.646" x2="50.7464" y2="422.614" gradientUnits="userSpaceOnUse">
<stop stop-color="#DDD2CE"/>
<stop offset="1" stop-color="#FEFEFE"/>
</linearGradient>
<linearGradient id="paint10_linear_53_257" x1="258.161" y1="376.892" x2="236.675" y2="383.827" gradientUnits="userSpaceOnUse">
<stop stop-color="#DDD2CE"/>
<stop offset="1" stop-color="#FEFEFE"/>
</linearGradient>
<linearGradient id="paint11_linear_53_257" x1="203.788" y1="193.683" x2="250.933" y2="327.391" gradientUnits="userSpaceOnUse">
<stop stop-color="#AA2C2C"/>
<stop offset="1" stop-color="#871818"/>
</linearGradient>
<linearGradient id="paint12_linear_53_257" x1="238.952" y1="194.467" x2="249.559" y2="304.723" gradientUnits="userSpaceOnUse">
<stop stop-color="#874A55"/>
<stop offset="1" stop-color="#773815"/>
</linearGradient>
<linearGradient id="paint13_linear_53_257" x1="148.912" y1="458.783" x2="187.034" y2="461.052" gradientUnits="userSpaceOnUse">
<stop stop-color="#222222"/>
<stop offset="1" stop-color="#222222"/>
</linearGradient>
<linearGradient id="paint14_linear_53_257" x1="170.654" y1="397.996" x2="202.682" y2="400.722" gradientUnits="userSpaceOnUse">
<stop stop-color="#502A28"/>
<stop offset="1" stop-color="#3D342E"/>
</linearGradient>
<linearGradient id="paint15_linear_53_257" x1="169.055" y1="470.72" x2="214.132" y2="473.403" gradientUnits="userSpaceOnUse">
<stop/>
<stop offset="1" stop-color="#222222"/>
</linearGradient>
<linearGradient id="paint16_linear_53_257" x1="137.126" y1="287.917" x2="84.8628" y2="290.517" gradientUnits="userSpaceOnUse">
<stop stop-color="#D1D1D1"/>
<stop offset="1" stop-color="#FEFEFE"/>
</linearGradient>
<linearGradient id="paint17_linear_53_257" x1="286.178" y1="269.129" x2="225.725" y2="302.299" gradientUnits="userSpaceOnUse">
<stop stop-color="#001740"/>
<stop offset="1" stop-color="#154677"/>
</linearGradient>
<linearGradient id="paint18_linear_53_257" x1="271.614" y1="418.214" x2="193.534" y2="541.224" gradientUnits="userSpaceOnUse">
<stop stop-color="#DDD2CE"/>
<stop offset="1" stop-color="#FEFEFE"/>
</linearGradient>
<linearGradient id="paint19_linear_53_257" x1="157.877" y1="363.245" x2="79.7965" y2="486.255" gradientUnits="userSpaceOnUse">
<stop stop-color="#DDD2CE"/>
<stop offset="1" stop-color="#FEFEFE"/>
</linearGradient>
<linearGradient id="paint20_linear_53_257" x1="471.107" y1="316.407" x2="393.027" y2="439.417" gradientUnits="userSpaceOnUse">
<stop stop-color="#DDD2CE"/>
<stop offset="1" stop-color="#FEFEFE"/>
</linearGradient>
<linearGradient id="paint21_linear_53_257" x1="357.369" y1="261.438" x2="279.289" y2="384.449" gradientUnits="userSpaceOnUse">
<stop stop-color="#DDD2CE"/>
<stop offset="1" stop-color="#FEFEFE"/>
</linearGradient>
<linearGradient id="paint22_linear_53_257" x1="407.164" y1="253.77" x2="470.687" y2="-133.413" gradientUnits="userSpaceOnUse">
<stop stop-color="#F5F5F5"/>
<stop offset="1" stop-color="#FEFEFE"/>
</linearGradient>
<linearGradient id="paint23_linear_53_257" x1="423.593" y1="69.2809" x2="674" y2="66.5" gradientUnits="userSpaceOnUse">
<stop stop-color="#341F1E"/>
<stop offset="1" stop-color="#182687"/>
</linearGradient>
<linearGradient id="paint24_linear_53_257" x1="317.845" y1="363.292" x2="316.729" y2="448.621" gradientUnits="userSpaceOnUse">
<stop stop-color="#4A150D"/>
<stop offset="1" stop-color="#290A21"/>
</linearGradient>
<linearGradient id="paint25_linear_53_257" x1="145.663" y1="404.855" x2="446.761" y2="224.719" gradientUnits="userSpaceOnUse">
<stop stop-color="#DDD2CE"/>
<stop offset="1" stop-color="#FEFEFE"/>
</linearGradient>
<linearGradient id="paint26_linear_53_257" x1="288.367" y1="186.882" x2="249.605" y2="247.949" gradientUnits="userSpaceOnUse">
<stop stop-color="#2B211F"/>
<stop offset="1" stop-color="#212121"/>
</linearGradient>
<linearGradient id="paint27_linear_53_257" x1="260.365" y1="163.51" x2="181.872" y2="287.171" gradientUnits="userSpaceOnUse">
<stop stop-color="#44290E"/>
<stop offset="1" stop-color="#2B2B2B"/>
</linearGradient>
<linearGradient id="paint28_linear_53_257" x1="187" y1="265" x2="172.983" y2="275.575" gradientUnits="userSpaceOnUse">
<stop stop-color="#1C1A19"/>
<stop offset="0.9999" stop-color="#1D3957"/>
<stop offset="1" stop-color="#154677"/>
<stop offset="1" stop-color="#383533"/>
</linearGradient>
<linearGradient id="paint29_linear_53_257" x1="234.748" y1="196.72" x2="247.095" y2="210.636" gradientUnits="userSpaceOnUse">
<stop stop-color="#F9A7A7"/>
<stop offset="1" stop-color="#FFD7D7"/>
</linearGradient>
<linearGradient id="paint30_linear_53_257" x1="310.137" y1="245.845" x2="300.729" y2="261.72" gradientUnits="userSpaceOnUse">
<stop stop-color="#F9A7A7"/>
<stop offset="1" stop-color="#FFD7D7"/>
</linearGradient>
<linearGradient id="paint31_linear_53_257" x1="207.928" y1="166.724" x2="239.401" y2="166.724" gradientUnits="userSpaceOnUse">
<stop stop-color="#F9A7A7"/>
<stop offset="1" stop-color="#FFD7D7"/>
</linearGradient>
<linearGradient id="paint32_linear_53_257" x1="199.361" y1="141.729" x2="227.969" y2="152.638" gradientUnits="userSpaceOnUse">
<stop stop-color="#F9A7A7"/>
<stop offset="1" stop-color="#FFD7D7"/>
</linearGradient>
<linearGradient id="paint33_linear_53_257" x1="187.176" y1="141.415" x2="255.907" y2="132.968" gradientUnits="userSpaceOnUse">
<stop/>
<stop offset="1" stop-color="#464646"/>
</linearGradient>
<linearGradient id="paint34_linear_53_257" x1="148.306" y1="258.296" x2="110.146" y2="318.415" gradientUnits="userSpaceOnUse">
<stop stop-color="#400000"/>
<stop offset="1" stop-color="#772115"/>
</linearGradient>
<linearGradient id="paint35_linear_53_257" x1="166.72" y1="296.398" x2="177.638" y2="279.917" gradientUnits="userSpaceOnUse">
<stop stop-color="#F9A7A7"/>
<stop offset="1" stop-color="#FFD7D7"/>
</linearGradient>
<linearGradient id="paint36_linear_53_257" x1="167.612" y1="332.453" x2="165.964" y2="310.41" gradientUnits="userSpaceOnUse">
<stop stop-color="#F9A7A7"/>
<stop offset="1" stop-color="#FFD7D7"/>
</linearGradient>
<linearGradient id="paint37_linear_53_257" x1="131.681" y1="197.329" x2="106.562" y2="236.903" gradientUnits="userSpaceOnUse">
<stop stop-color="#F9A7A7"/>
<stop offset="1" stop-color="#FFD7D7"/>
</linearGradient>
<linearGradient id="paint38_linear_53_257" x1="129.811" y1="174.515" x2="62.6262" y2="280.361" gradientUnits="userSpaceOnUse">
<stop stop-color="#400000"/>
<stop offset="1" stop-color="#771515"/>
</linearGradient>
<linearGradient id="paint39_linear_53_257" x1="404.549" y1="305.029" x2="387.836" y2="307.455" gradientUnits="userSpaceOnUse">
<stop stop-color="#5A0F0A"/>
<stop offset="1" stop-color="#514948"/>
</linearGradient>
<linearGradient id="paint40_linear_53_257" x1="301.314" y1="315.885" x2="323.958" y2="328.285" gradientUnits="userSpaceOnUse">
<stop stop-color="#590F09"/>
<stop offset="1" stop-color="#311E14"/>
</linearGradient>
<linearGradient id="paint41_linear_53_257" x1="356.485" y1="252.518" x2="374.691" y2="252.815" gradientUnits="userSpaceOnUse">
<stop stop-color="#F9A7A7"/>
<stop offset="1" stop-color="#FFD7D7"/>
</linearGradient>
<linearGradient id="paint42_linear_53_257" x1="355.359" y1="216.195" x2="347.594" y2="301.095" gradientUnits="userSpaceOnUse">
<stop stop-color="#0A0A0A"/>
<stop offset="1" stop-color="#55412D"/>
</linearGradient>
<linearGradient id="paint43_linear_53_257" x1="241.659" y1="395.068" x2="410.449" y2="384.211" gradientUnits="userSpaceOnUse">
<stop stop-color="#FF5C5C"/>
<stop offset="1" stop-color="#871818"/>
</linearGradient>
<linearGradient id="paint44_linear_53_257" x1="355.11" y1="348.045" x2="355.11" y2="449.201" gradientUnits="userSpaceOnUse">
<stop stop-color="#C18787"/>
<stop offset="1" stop-color="#871F18"/>
</linearGradient>
<linearGradient id="paint45_linear_53_257" x1="412.138" y1="55.6932" x2="393.051" y2="96.8813" gradientUnits="userSpaceOnUse">
<stop stop-color="#E55151"/>
<stop offset="1" stop-color="#6F15B5"/>
</linearGradient>
<linearGradient id="paint46_linear_53_257" x1="427.485" y1="62.8062" x2="408.399" y2="103.994" gradientUnits="userSpaceOnUse">
<stop stop-color="#E55151"/>
<stop offset="1" stop-color="#6F15B5"/>
</linearGradient>
<linearGradient id="paint47_linear_53_257" x1="442.833" y1="69.9191" x2="423.746" y2="111.107" gradientUnits="userSpaceOnUse">
<stop stop-color="#E55151"/>
<stop offset="1" stop-color="#6F15B5"/>
</linearGradient>
<linearGradient id="paint48_linear_53_257" x1="458.18" y1="77.0318" x2="439.094" y2="118.219" gradientUnits="userSpaceOnUse">
<stop stop-color="#E55151"/>
<stop offset="1" stop-color="#6F15B5"/>
</linearGradient>
<linearGradient id="paint49_linear_53_257" x1="488.331" y1="135.363" x2="638.5" y2="433.5" gradientUnits="userSpaceOnUse">
<stop stop-color="#2E2D2D"/>
<stop offset="1" stop-color="#154677"/>
</linearGradient>
<linearGradient id="paint50_linear_53_257" x1="503.114" y1="358.833" x2="539.197" y2="360.459" gradientUnits="userSpaceOnUse">
<stop stop-color="#222222"/>
<stop offset="1" stop-color="#222222"/>
</linearGradient>
<linearGradient id="paint51_linear_53_257" x1="545.899" y1="372.236" x2="580.232" y2="373.783" gradientUnits="userSpaceOnUse">
<stop stop-color="#222222"/>
<stop offset="1" stop-color="#222222"/>
</linearGradient>
<linearGradient id="paint52_linear_53_257" x1="471.008" y1="136.642" x2="459.138" y2="143.155" gradientUnits="userSpaceOnUse">
<stop stop-color="#001740"/>
<stop offset="1" stop-color="#154677"/>
</linearGradient>
<linearGradient id="paint53_linear_53_257" x1="458.106" y1="159.761" x2="477.355" y2="160.628" gradientUnits="userSpaceOnUse">
<stop stop-color="#F9A7A7"/>
<stop offset="1" stop-color="#FFD7D7"/>
</linearGradient>
<linearGradient id="paint54_linear_53_257" x1="549.478" y1="283.468" x2="523.462" y2="287.137" gradientUnits="userSpaceOnUse">
<stop stop-color="#222222"/>
<stop offset="1" stop-color="#353333"/>
</linearGradient>
<linearGradient id="paint55_linear_53_257" x1="581.318" y1="298.32" x2="547.995" y2="298.32" gradientUnits="userSpaceOnUse">
<stop stop-color="#222222"/>
<stop offset="1" stop-color="#353333"/>
</linearGradient>
<linearGradient id="paint56_linear_53_257" x1="577.345" y1="188.348" x2="530.541" y2="179.959" gradientUnits="userSpaceOnUse">
<stop stop-color="#45281C"/>
<stop offset="1" stop-color="#494B4E"/>
</linearGradient>
<linearGradient id="paint57_linear_53_257" x1="559.176" y1="178.286" x2="695.5" y2="285" gradientUnits="userSpaceOnUse">
<stop stop-color="#4E2E2C"/>
<stop offset="1" stop-color="#154677"/>
</linearGradient>
<linearGradient id="paint58_linear_53_257" x1="564.555" y1="125.723" x2="536.529" y2="125.723" gradientUnits="userSpaceOnUse">
<stop stop-color="#F9A7A7"/>
<stop offset="1" stop-color="#FFD7D7"/>
</linearGradient>
<linearGradient id="paint59_linear_53_257" x1="570.045" y1="101.917" x2="546.168" y2="115.018" gradientUnits="userSpaceOnUse">
<stop stop-color="#F9A7A7"/>
<stop offset="1" stop-color="#FFD7D7"/>
</linearGradient>
<linearGradient id="paint60_linear_53_257" x1="579.947" y1="99.8901" x2="519.218" y2="100.817" gradientUnits="userSpaceOnUse">
<stop stop-color="#241F18"/>
<stop offset="1" stop-color="#707070"/>
</linearGradient>
<linearGradient id="paint61_linear_53_257" x1="544.574" y1="221.731" x2="883.5" y2="29.5" gradientUnits="userSpaceOnUse">
<stop stop-color="#353535"/>
<stop offset="0.603586" stop-color="#494949"/>
<stop offset="1" stop-color="#7C634C"/>
</linearGradient>
<linearGradient id="paint62_linear_53_257" x1="532.611" y1="222.68" x2="556.049" y2="223.736" gradientUnits="userSpaceOnUse">
<stop stop-color="#F9A7A7"/>
<stop offset="1" stop-color="#FFD7D7"/>
</linearGradient>
</defs>
</svg>
