<svg viewBox="0 0 131 82" fill="none" xmlns="http://www.w3.org/2000/svg">
<path d="M76.0334 1.4477e-06C72.0899 1.27532e-06 68.4497 0.960597 65.1129 2.88179C61.7761 4.80298 59.1471 7.43198 57.2259 10.7688C55.3047 14.1056 54.3441 17.7458 54.3441 21.6893C54.3441 25.6328 55.3047 29.2476 57.2259 32.5339C59.1471 35.8201 61.7761 38.4491 65.1129 40.4209C68.4497 42.3926 72.0899 43.3532 76.0334 43.3027L108.491 43.3027C111.525 43.3027 114.078 44.3644 116.151 46.4878C118.224 48.6112 119.285 51.1644 119.336 54.1473C119.336 57.1302 118.274 59.6834 116.151 61.8068C114.027 63.9302 111.474 64.9919 108.491 64.9919L59.7285 64.9919C58.2623 64.9919 56.9984 65.5228 55.9367 66.5845C54.875 67.6462 54.3441 68.9354 54.3441 70.4522C54.3441 71.9689 54.875 73.2328 55.9367 74.244C56.9984 75.2551 58.2623 75.786 59.7285 75.8366L108.491 75.8366C112.435 75.8366 116.075 74.876 119.412 72.9548C122.749 71.0336 125.378 68.4046 127.299 65.0678C129.22 61.731 130.181 58.0908 130.181 54.1473C130.181 50.2038 129.22 46.5889 127.299 43.3027C125.378 40.0164 122.749 37.3874 119.412 35.4157C116.075 33.4439 112.435 32.4833 108.491 32.5339L76.0334 32.5339C73.0505 32.5339 70.4973 31.4722 68.3739 29.3487C66.2504 27.2253 65.1887 24.6722 65.1887 21.6893C65.1887 18.7064 66.2504 16.1532 68.3739 14.0298C70.4973 11.9063 73.0505 10.8446 76.0334 10.8446L124.796 10.8446C126.313 10.8446 127.577 10.3138 128.588 9.25206C129.599 8.19035 130.13 6.90113 130.181 5.3844C130.231 3.86767 129.7 2.60373 128.588 1.59257C127.476 0.581417 126.212 0.0505613 124.796 3.57919e-06L76.0334 1.4477e-06Z" fill="#2D261F"/>
<path d="M22.8817 73.1398C22.8817 74.7195 24.1622 76 25.7419 76C27.3216 76 28.6021 74.7195 28.6021 73.1398V21.6559C28.6021 20.0763 27.3216 18.7957 25.7419 18.7957C24.1622 18.7957 22.8817 20.0763 22.8817 21.6559V73.1398Z" fill="#2D261F"/>
<path d="M0 73.1398C0 74.7195 1.28058 76 2.86021 76C4.43985 76 5.72043 74.7195 5.72043 73.1398V44.5376C5.72043 42.9579 4.43985 41.6774 2.86021 41.6774C1.28058 41.6774 0 42.9579 0 44.5376V73.1398Z" fill="#2D261F"/>
<path d="M14.3011 76C12.7214 76 11.4409 74.7195 11.4409 73.1398V50.2581C11.4409 48.6784 12.7214 47.3979 14.3011 47.3979C15.8808 47.3979 17.1613 48.6784 17.1613 50.2581V73.1398C17.1613 74.7195 15.8808 76 14.3011 76Z" fill="#2D261F"/>
<path d="M34.3226 73.1398C34.3226 74.7195 35.6031 76 37.1828 76C38.7625 76 40.043 74.7195 40.043 73.1398V33.0968C40.043 31.5171 38.7625 30.2366 37.1828 30.2366C35.6031 30.2366 34.3226 31.5171 34.3226 33.0968V73.1398Z" fill="#2D261F"/>
<rect x="54" y="58" width="23.7698" height="23.7698" rx="11.8849" fill="#2D261F"/>
</svg>
